# xmcd
#
# Track frame offsets: 
#        150
#        11682
#        27750
#        41043
#        55435
#        76585
#        96506
#        107442
#        123697
#        137841
#        144985
#        167597
#
# Disc length: 2532 seconds
#
# Revision: 0
# Processed by: cddbd v1.5.2PL0 Copyright (c) Steve Scherf et al.
# Submitted via: ExactAudioCopy v0.99pb5
#
DISCID=9b09e20c
DTITLE=Holy Vessels - Last Orders At The Marshall Arms
DYEAR=2012
DGENRE=Country
TTITLE0=Firecracker
TTITLE1=Springtime Bloom
TTITLE2=Golden Hair
TTITLE3=Down By The Wayside
TTITLE4=Last Rebel Of The War
TTITLE5=Queen Of Alimony
TTITLE6=Willin'
TTITLE7=Perhaps She Never Really Came
TTITLE8=Peeping Tom
TTITLE9=In Your Water
TTITLE10=Jaycee
TTITLE11=Fever
EXTD=
EXTT0=
EXTT1=
EXTT2=
EXTT3=
EXTT4=
EXTT5=
EXTT6=
EXTT7=
EXTT8=
EXTT9=
EXTT10=
EXTT11=
PLAYORDER=
